<?xml version="1.0" standalone="no"?>
<!DOCTYPE svg PUBLIC "-//W3C//DTD SVG 20010904//EN"
 "http://www.w3.org/TR/2001/REC-SVG-20010904/DTD/svg10.dtd">
<svg version="1.0" xmlns="http://www.w3.org/2000/svg"
 width="1024.000000pt" height="1024.000000pt" viewBox="0 0 1024.000000 1024.000000"
 preserveAspectRatio="xMidYMid meet">
<metadata>
Created by potrace 1.11, written by Peter Selinger 2001-2013
</metadata>
<g transform="translate(0.000000,1024.000000) scale(0.100000,-0.100000)"
fill="#000000" stroke="none">
<path d="M1180 5125 l0 -3935 3935 0 3935 0 0 3935 0 3935 -3935 0 -3935 0 0
-3935z m7570 0 l0 -3635 -3635 0 -3635 0 0 3635 0 3635 3635 0 3635 0 0 -3635z"/>
<path d="M2575 6790 c13 -36 216 -541 240 -595 14 -32 167 -413 340 -845 59
-146 111 -274 116 -285 12 -25 353 -869 384 -950 13 -33 80 -199 150 -370 70
-170 129 -319 132 -330 13 -45 12 -45 309 -45 234 0 284 2 284 14 0 12 18 59
50 131 5 11 21 49 35 85 14 36 30 74 35 85 5 11 27 65 50 120 23 55 51 125 64
155 13 30 54 129 91 220 37 91 73 179 80 195 19 44 133 321 157 383 12 28 24
52 27 52 3 0 82 -186 175 -413 93 -226 174 -425 182 -442 17 -40 66 -159 161
-390 l79 -190 283 0 284 0 45 110 c24 61 50 124 57 140 7 17 86 210 175 430
89 220 168 414 175 430 7 17 37 89 65 160 29 72 58 144 66 160 7 17 36 89 65
160 28 72 57 144 65 160 20 46 106 257 144 355 11 30 30 75 42 100 11 25 21
50 23 55 1 6 7 21 12 35 6 14 59 144 118 290 59 146 113 279 120 295 7 17 29
71 49 120 20 50 41 99 45 110 5 11 23 56 41 100 18 44 36 89 41 100 48 115 51
127 42 133 -12 8 -710 9 -716 2 -2 -3 -48 -126 -101 -275 -54 -148 -131 -360
-171 -470 -40 -110 -95 -258 -120 -330 -26 -71 -60 -164 -75 -205 -15 -41 -84
-232 -154 -425 -70 -192 -143 -390 -161 -440 -32 -85 -148 -406 -176 -487 -7
-21 -15 -38 -19 -38 -3 0 -42 93 -87 208 -226 573 -304 769 -312 787 -5 11
-16 38 -24 60 l-15 40 289 770 c159 424 290 777 291 785 3 12 -39 14 -300 15
-167 0 -307 -2 -311 -5 -4 -3 -10 -14 -13 -25 -4 -11 -70 -207 -148 -435 -78
-228 -160 -469 -182 -535 -22 -66 -43 -123 -47 -127 -3 -4 -49 120 -101 275
-52 155 -96 287 -99 292 -3 6 -6 15 -7 20 -5 22 -174 511 -182 525 -8 13 -53
15 -303 16 -162 0 -300 -2 -306 -4 -9 -3 -10 -9 -3 -21 5 -10 23 -57 41 -107
17 -49 37 -105 44 -124 36 -94 222 -600 261 -710 25 -69 51 -138 58 -155 7
-16 26 -66 41 -110 15 -44 33 -93 40 -110 6 -16 29 -75 49 -130 l37 -100 -91
-235 c-51 -129 -104 -269 -120 -310 -38 -101 -139 -360 -150 -385 -4 -11 -21
-53 -35 -93 -15 -41 -31 -70 -35 -65 -5 4 -15 28 -23 53 -9 25 -61 169 -117
320 -56 151 -121 331 -146 400 -25 69 -68 184 -94 255 -27 72 -69 189 -95 260
-26 72 -57 158 -71 192 -13 34 -24 68 -24 75 0 8 -4 18 -8 24 -5 5 -19 38 -32
74 -25 73 -209 577 -302 830 -34 91 -65 169 -70 175 -5 6 -145 10 -362 10
l-353 0 12 -35z"/>
</g>
</svg>
